v 0.03640 0.00000 -0.05000
v 0.02888 0.00284 -0.05000
v 0.02385 0.00474 -0.05000
v 0.02020 0.00613 -0.05000
v 0.01737 0.00719 -0.05000
v 0.01508 0.00806 -0.05000
v 0.01315 0.00879 -0.05000
v 0.01241 0.01018 -0.05000
v 0.01230 0.01230 -0.05000
v 0.01218 0.01485 -0.05000
v 0.01203 0.01801 -0.05000
v 0.01184 0.02215 -0.05000
v 0.01157 0.02792 -0.05000
v 0.01005 0.03312 -0.05000
v 0.00545 0.02738 -0.05000
v 0.00231 0.02347 -0.05000
v 0.00000 0.02058 -0.05000
v -0.00181 0.01833 -0.05000
v -0.00328 0.01649 -0.05000
v -0.00453 0.01493 -0.05000
v -0.00623 0.01505 -0.05000
v -0.00835 0.01563 -0.05000
v -0.01091 0.01633 -0.05000
v -0.01412 0.01721 -0.05000
v -0.01837 0.01837 -0.05000
v -0.02438 0.02001 -0.05000
v -0.02744 0.01833 -0.05000
v -0.02373 0.01268 -0.05000
v -0.02115 0.00876 -0.05000
v -0.01923 0.00583 -0.05000
v -0.01771 0.00352 -0.05000
v -0.01646 0.00162 -0.05000
v -0.01540 0.00000 -0.05000
v -0.01646 -0.00162 -0.05000
v -0.01771 -0.00352 -0.05000
v -0.01923 -0.00583 -0.05000
v -0.02115 -0.00876 -0.05000
v -0.02373 -0.01268 -0.05000
v -0.02744 -0.01833 -0.05000
v -0.02438 -0.02001 -0.05000
v -0.01837 -0.01837 -0.05000
v -0.01412 -0.01721 -0.05000
v -0.01091 -0.01633 -0.05000
v -0.00835 -0.01563 -0.05000
v -0.00623 -0.01505 -0.05000
v -0.00453 -0.01493 -0.05000
v -0.00328 -0.01649 -0.05000
v -0.00181 -0.01833 -0.05000
v -0.00000 -0.02058 -0.05000
v 0.00231 -0.02347 -0.05000
v 0.00545 -0.02738 -0.05000
v 0.01005 -0.03312 -0.05000
v 0.01157 -0.02792 -0.05000
v 0.01184 -0.02215 -0.05000
v 0.01203 -0.01801 -0.05000
v 0.01218 -0.01485 -0.05000
v 0.01230 -0.01230 -0.05000
v 0.01241 -0.01018 -0.05000
v 0.01315 -0.00879 -0.05000
v 0.01508 -0.00806 -0.05000
v 0.01737 -0.00719 -0.05000
v 0.02020 -0.00613 -0.05000
v 0.02385 -0.00474 -0.05000
v 0.02888 -0.00284 -0.05000
v 0.03640 0.00000 0.05000
v 0.02888 0.00284 0.05000
v 0.02385 0.00474 0.05000
v 0.02020 0.00613 0.05000
v 0.01737 0.00719 0.05000
v 0.01508 0.00806 0.05000
v 0.01315 0.00879 0.05000
v 0.01241 0.01018 0.05000
v 0.01230 0.01230 0.05000
v 0.01218 0.01485 0.05000
v 0.01203 0.01801 0.05000
v 0.01184 0.02215 0.05000
v 0.01157 0.02792 0.05000
v 0.01005 0.03312 0.05000
v 0.00545 0.02738 0.05000
v 0.00231 0.02347 0.05000
v 0.00000 0.02058 0.05000
v -0.00181 0.01833 0.05000
v -0.00328 0.01649 0.05000
v -0.00453 0.01493 0.05000
v -0.00623 0.01505 0.05000
v -0.00835 0.01563 0.05000
v -0.01091 0.01633 0.05000
v -0.01412 0.01721 0.05000
v -0.01837 0.01837 0.05000
v -0.02438 0.02001 0.05000
v -0.02744 0.01833 0.05000
v -0.02373 0.01268 0.05000
v -0.02115 0.00876 0.05000
v -0.01923 0.00583 0.05000
v -0.01771 0.00352 0.05000
v -0.01646 0.00162 0.05000
v -0.01540 0.00000 0.05000
v -0.01646 -0.00162 0.05000
v -0.01771 -0.00352 0.05000
v -0.01923 -0.00583 0.05000
v -0.02115 -0.00876 0.05000
v -0.02373 -0.01268 0.05000
v -0.02744 -0.01833 0.05000
v -0.02438 -0.02001 0.05000
v -0.01837 -0.01837 0.05000
v -0.01412 -0.01721 0.05000
v -0.01091 -0.01633 0.05000
v -0.00835 -0.01563 0.05000
v -0.00623 -0.01505 0.05000
v -0.00453 -0.01493 0.05000
v -0.00328 -0.01649 0.05000
v -0.00181 -0.01833 0.05000
v -0.00000 -0.02058 0.05000
v 0.00231 -0.02347 0.05000
v 0.00545 -0.02738 0.05000
v 0.01005 -0.03312 0.05000
v 0.01157 -0.02792 0.05000
v 0.01184 -0.02215 0.05000
v 0.01203 -0.01801 0.05000
v 0.01218 -0.01485 0.05000
v 0.01230 -0.01230 0.05000
v 0.01241 -0.01018 0.05000
v 0.01315 -0.00879 0.05000
v 0.01508 -0.00806 0.05000
v 0.01737 -0.00719 0.05000
v 0.02020 -0.00613 0.05000
v 0.02385 -0.00474 0.05000
v 0.02888 -0.00284 0.05000
v 0.00000 0.00000 -0.05000
v 0.00000 0.00000 0.05000
f 1 2 66
f 1 66 65
f 129 2 1
f 130 65 66
f 2 3 67
f 2 67 66
f 129 3 2
f 130 66 67
f 3 4 68
f 3 68 67
f 129 4 3
f 130 67 68
f 4 5 69
f 4 69 68
f 129 5 4
f 130 68 69
f 5 6 70
f 5 70 69
f 129 6 5
f 130 69 70
f 6 7 71
f 6 71 70
f 129 7 6
f 130 70 71
f 7 8 72
f 7 72 71
f 129 8 7
f 130 71 72
f 8 9 73
f 8 73 72
f 129 9 8
f 130 72 73
f 9 10 74
f 9 74 73
f 129 10 9
f 130 73 74
f 10 11 75
f 10 75 74
f 129 11 10
f 130 74 75
f 11 12 76
f 11 76 75
f 129 12 11
f 130 75 76
f 12 13 77
f 12 77 76
f 129 13 12
f 130 76 77
f 13 14 78
f 13 78 77
f 129 14 13
f 130 77 78
f 14 15 79
f 14 79 78
f 129 15 14
f 130 78 79
f 15 16 80
f 15 80 79
f 129 16 15
f 130 79 80
f 16 17 81
f 16 81 80
f 129 17 16
f 130 80 81
f 17 18 82
f 17 82 81
f 129 18 17
f 130 81 82
f 18 19 83
f 18 83 82
f 129 19 18
f 130 82 83
f 19 20 84
f 19 84 83
f 129 20 19
f 130 83 84
f 20 21 85
f 20 85 84
f 129 21 20
f 130 84 85
f 21 22 86
f 21 86 85
f 129 22 21
f 130 85 86
f 22 23 87
f 22 87 86
f 129 23 22
f 130 86 87
f 23 24 88
f 23 88 87
f 129 24 23
f 130 87 88
f 24 25 89
f 24 89 88
f 129 25 24
f 130 88 89
f 25 26 90
f 25 90 89
f 129 26 25
f 130 89 90
f 26 27 91
f 26 91 90
f 129 27 26
f 130 90 91
f 27 28 92
f 27 92 91
f 129 28 27
f 130 91 92
f 28 29 93
f 28 93 92
f 129 29 28
f 130 92 93
f 29 30 94
f 29 94 93
f 129 30 29
f 130 93 94
f 30 31 95
f 30 95 94
f 129 31 30
f 130 94 95
f 31 32 96
f 31 96 95
f 129 32 31
f 130 95 96
f 32 33 97
f 32 97 96
f 129 33 32
f 130 96 97
f 33 34 98
f 33 98 97
f 129 34 33
f 130 97 98
f 34 35 99
f 34 99 98
f 129 35 34
f 130 98 99
f 35 36 100
f 35 100 99
f 129 36 35
f 130 99 100
f 36 37 101
f 36 101 100
f 129 37 36
f 130 100 101
f 37 38 102
f 37 102 101
f 129 38 37
f 130 101 102
f 38 39 103
f 38 103 102
f 129 39 38
f 130 102 103
f 39 40 104
f 39 104 103
f 129 40 39
f 130 103 104
f 40 41 105
f 40 105 104
f 129 41 40
f 130 104 105
f 41 42 106
f 41 106 105
f 129 42 41
f 130 105 106
f 42 43 107
f 42 107 106
f 129 43 42
f 130 106 107
f 43 44 108
f 43 108 107
f 129 44 43
f 130 107 108
f 44 45 109
f 44 109 108
f 129 45 44
f 130 108 109
f 45 46 110
f 45 110 109
f 129 46 45
f 130 109 110
f 46 47 111
f 46 111 110
f 129 47 46
f 130 110 111
f 47 48 112
f 47 112 111
f 129 48 47
f 130 111 112
f 48 49 113
f 48 113 112
f 129 49 48
f 130 112 113
f 49 50 114
f 49 114 113
f 129 50 49
f 130 113 114
f 50 51 115
f 50 115 114
f 129 51 50
f 130 114 115
f 51 52 116
f 51 116 115
f 129 52 51
f 130 115 116
f 52 53 117
f 52 117 116
f 129 53 52
f 130 116 117
f 53 54 118
f 53 118 117
f 129 54 53
f 130 117 118
f 54 55 119
f 54 119 118
f 129 55 54
f 130 118 119
f 55 56 120
f 55 120 119
f 129 56 55
f 130 119 120
f 56 57 121
f 56 121 120
f 129 57 56
f 130 120 121
f 57 58 122
f 57 122 121
f 129 58 57
f 130 121 122
f 58 59 123
f 58 123 122
f 129 59 58
f 130 122 123
f 59 60 124
f 59 124 123
f 129 60 59
f 130 123 124
f 60 61 125
f 60 125 124
f 129 61 60
f 130 124 125
f 61 62 126
f 61 126 125
f 129 62 61
f 130 125 126
f 62 63 127
f 62 127 126
f 129 63 62
f 130 126 127
f 63 64 128
f 63 128 127
f 129 64 63
f 130 127 128
f 64 1 65
f 64 65 128
f 129 1 64
f 130 128 65
