solid 정육면체
 facet normal 0.00000 0.00000 1.00000
  outer loop
   vertex -37.5000 -37.5000 0.0000
   vertex 37.5000 -37.5000 0.0000
   vertex 37.5000 37.5000 0.0000
  endloop
 endfacet
 facet normal 0.00000 0.00000 1.00000
  outer loop
   vertex -37.5000 -37.5000 0.0000
   vertex 37.5000 37.5000 0.0000
   vertex -37.5000 37.5000 0.0000
  endloop
 endfacet
 facet normal 0.00000 0.00000 -1.00000
  outer loop
   vertex -37.5000 -37.5000 75.0000
   vertex -37.5000 37.5000 75.0000
   vertex 37.5000 37.5000 75.0000
  endloop
 endfacet
 facet normal 0.00000 0.00000 -1.00000
  outer loop
   vertex -37.5000 -37.5000 75.0000
   vertex 37.5000 37.5000 75.0000
   vertex 37.5000 -37.5000 75.0000
  endloop
 endfacet
 facet normal 0.00000 1.00000 0.00000
  outer loop
   vertex -37.5000 -37.5000 0.0000
   vertex -37.5000 -37.5000 75.0000
   vertex 37.5000 -37.5000 75.0000
  endloop
 endfacet
 facet normal 0.00000 1.00000 0.00000
  outer loop
   vertex -37.5000 -37.5000 0.0000
   vertex 37.5000 -37.5000 75.0000
   vertex 37.5000 -37.5000 0.0000
  endloop
 endfacet
 facet normal 0.00000 -1.00000 0.00000
  outer loop
   vertex -37.5000 37.5000 0.0000
   vertex 37.5000 37.5000 0.0000
   vertex 37.5000 37.5000 75.0000
  endloop
 endfacet
 facet normal 0.00000 -1.00000 0.00000
  outer loop
   vertex -37.5000 37.5000 0.0000
   vertex 37.5000 37.5000 75.0000
   vertex -37.5000 37.5000 75.0000
  endloop
 endfacet
 facet normal 1.00000 0.00000 0.00000
  outer loop
   vertex -37.5000 -37.5000 0.0000
   vertex -37.5000 37.5000 0.0000
   vertex -37.5000 37.5000 75.0000
  endloop
 endfacet
 facet normal 1.00000 0.00000 0.00000
  outer loop
   vertex -37.5000 -37.5000 0.0000
   vertex -37.5000 37.5000 75.0000
   vertex -37.5000 -37.5000 75.0000
  endloop
 endfacet
 facet normal -1.00000 0.00000 0.00000
  outer loop
   vertex 37.5000 -37.5000 0.0000
   vertex 37.5000 -37.5000 75.0000
   vertex 37.5000 37.5000 75.0000
  endloop
 endfacet
 facet normal -1.00000 0.00000 0.00000
  outer loop
   vertex 37.5000 -37.5000 0.0000
   vertex 37.5000 37.5000 75.0000
   vertex 37.5000 37.5000 0.0000
  endloop
 endfacet
endsolid 정육면체
